<?xml version="1.0" encoding="UTF-8" standalone="no"?>
<!-- Generator: Adobe Illustrator 19.0.0, SVG Export Plug-In . SVG Version: 6.00 Build 0)  -->

<svg
   version="1.1"
   id="Capa_1"
   x="0px"
   y="0px"
   viewBox="0 0 490.3 490.3"
   style="enable-background:new 0 0 490.3 490.3;"
   xml:space="preserve"
   sodipodi:docname="logout.svg"
   inkscape:version="1.1.1 (3bf5ae0d25, 2021-09-20, custom)"
   xmlns:inkscape="http://www.inkscape.org/namespaces/inkscape"
   xmlns:sodipodi="http://sodipodi.sourceforge.net/DTD/sodipodi-0.dtd"
   xmlns="http://www.w3.org/2000/svg"
   xmlns:svg="http://www.w3.org/2000/svg"><defs
   id="defs109" /><sodipodi:namedview
   id="namedview107"
   pagecolor="#ffffff"
   bordercolor="#111111"
   borderopacity="1"
   inkscape:pageshadow="0"
   inkscape:pageopacity="0"
   inkscape:pagecheckerboard="1"
   showgrid="false"
   inkscape:zoom="1.6826433"
   inkscape:cx="122.42642"
   inkscape:cy="245.15"
   inkscape:window-width="1920"
   inkscape:window-height="1062"
   inkscape:window-x="0"
   inkscape:window-y="18"
   inkscape:window-maximized="1"
   inkscape:current-layer="g74" />
<g
   id="g74">
	<g
   id="g72"
   style="fill:#5fb3b3;fill-opacity:1">
		<path
   d="M0,121.05v248.2c0,34.2,27.9,62.1,62.1,62.1h200.6c34.2,0,62.1-27.9,62.1-62.1v-40.2c0-6.8-5.5-12.3-12.3-12.3    s-12.3,5.5-12.3,12.3v40.2c0,20.7-16.9,37.6-37.6,37.6H62.1c-20.7,0-37.6-16.9-37.6-37.6v-248.2c0-20.7,16.9-37.6,37.6-37.6h200.6    c20.7,0,37.6,16.9,37.6,37.6v40.2c0,6.8,5.5,12.3,12.3,12.3s12.3-5.5,12.3-12.3v-40.2c0-34.2-27.9-62.1-62.1-62.1H62.1    C27.9,58.95,0,86.75,0,121.05z"
   id="path68"
   style="fill:#5fb3b3;fill-opacity:1" />
		<path
   d="M385.4,337.65c2.4,2.4,5.5,3.6,8.7,3.6s6.3-1.2,8.7-3.6l83.9-83.9c4.8-4.8,4.8-12.5,0-17.3l-83.9-83.9    c-4.8-4.8-12.5-4.8-17.3,0s-4.8,12.5,0,17.3l63,63H218.6c-6.8,0-12.3,5.5-12.3,12.3c0,6.8,5.5,12.3,12.3,12.3h229.8l-63,63    C380.6,325.15,380.6,332.95,385.4,337.65z"
   id="path70"
   style="fill:#5fb3b3;fill-opacity:1" />
	</g>
</g>
<g
   id="g76">
</g>
<g
   id="g78">
</g>
<g
   id="g80">
</g>
<g
   id="g82">
</g>
<g
   id="g84">
</g>
<g
   id="g86">
</g>
<g
   id="g88">
</g>
<g
   id="g90">
</g>
<g
   id="g92">
</g>
<g
   id="g94">
</g>
<g
   id="g96">
</g>
<g
   id="g98">
</g>
<g
   id="g100">
</g>
<g
   id="g102">
</g>
<g
   id="g104">
</g>
</svg>
