<?xml version="1.0" encoding="UTF-8" standalone="no"?>
<!-- Generator: Adobe Illustrator 18.1.1, SVG Export Plug-In . SVG Version: 6.00 Build 0)  -->

<svg
   version="1.1"
   id="Capa_1"
   x="0px"
   y="0px"
   viewBox="0 0 30.143 30.143"
   style="enable-background:new 0 0 30.143 30.143;"
   xml:space="preserve"
   sodipodi:docname="power-button.svg"
   inkscape:version="1.1.1 (3bf5ae0d25, 2021-09-20, custom)"
   xmlns:inkscape="http://www.inkscape.org/namespaces/inkscape"
   xmlns:sodipodi="http://sodipodi.sourceforge.net/DTD/sodipodi-0.dtd"
   xmlns="http://www.w3.org/2000/svg"
   xmlns:svg="http://www.w3.org/2000/svg"><defs
   id="defs121" /><sodipodi:namedview
   id="namedview119"
   pagecolor="#ffffff"
   bordercolor="#111111"
   borderopacity="1"
   inkscape:pageshadow="0"
   inkscape:pageopacity="0"
   inkscape:pagecheckerboard="1"
   showgrid="false"
   showguides="false"
   inkscape:zoom="27.369539"
   inkscape:cx="7.5266158"
   inkscape:cy="15.0715"
   inkscape:window-width="1920"
   inkscape:window-height="1062"
   inkscape:window-x="0"
   inkscape:window-y="18"
   inkscape:window-maximized="1"
   inkscape:current-layer="Capa_1" />
<g
   id="g86"
   style="fill:#5fb3b3;fill-opacity:1">
	<path
   style="fill:#5fb3b3;fill-opacity:1"
   d="m 20.034,2.357 v 3.824 c 3.482,1.798 5.869,5.427 5.869,9.619 0,5.98 -4.848,10.83 -10.828,10.83 -5.982,0 -10.832,-4.85 -10.832,-10.83 0,-3.844 2.012,-7.215 5.029,-9.136 V 2.689 C 4.245,4.918 0.731,9.945 0.731,15.801 c 0,7.921 6.42,14.342 14.34,14.342 7.924,0 14.342,-6.421 14.342,-14.342 C 29.412,9.624 25.501,4.379 20.034,2.357 Z"
   id="path82" />
	<path
   style="fill:#5fb3b3;fill-opacity:1"
   d="m 14.795,17.652 c 1.576,0 1.736,-0.931 1.736,-2.076 V 2.08 C 16.531,0.932 16.371,0 14.795,0 13.225,0 13.063,0.932 13.063,2.08 v 13.496 c -0.001,1.146 0.162,2.076 1.732,2.076 z"
   id="path84" />
</g>
<g
   id="g88">
</g>
<g
   id="g90">
</g>
<g
   id="g92">
</g>
<g
   id="g94">
</g>
<g
   id="g96">
</g>
<g
   id="g98">
</g>
<g
   id="g100">
</g>
<g
   id="g102">
</g>
<g
   id="g104">
</g>
<g
   id="g106">
</g>
<g
   id="g108">
</g>
<g
   id="g110">
</g>
<g
   id="g112">
</g>
<g
   id="g114">
</g>
<g
   id="g116">
</g>
</svg>
